<?xml version="1.0" encoding="UTF-8" standalone="no"?>
<svg width="300px" height="300px" viewBox="0 0 300 300" version="1.1" xmlns="http://www.w3.org/2000/svg" xmlns:xlink="http://www.w3.org/1999/xlink">
    <!-- Generator: Sketch 3.8.3 (29802) - http://www.bohemiancoding.com/sketch -->
    <title>Slice 1</title>
    <desc>Created with Sketch.</desc>
    <defs></defs>
    <g id="Page-1" stroke="none" stroke-width="1" fill="none" fill-rule="evenodd">
        <g id="Imported-Layers" transform="translate(14.000000, 31.000000)">
            <path d="M61.4219972,53.1377512 L72.9881884,76.4680166 C73.8150023,78.1369842 75.410339,79.2920693 77.2541801,79.5559135 L103.029606,83.2543335 C107.669888,83.9200798 109.533671,89.6203405 106.18193,92.8984507 L87.5671115,111.108299 C86.235619,112.410646 85.6312318,114.283632 85.9487651,116.11827 L90.3973002,141.775579 C91.1980365,146.39592 86.3537352,149.92867 82.1981899,147.75349 L59.1287007,135.678018 C57.4796748,134.814389 55.5100476,134.817457 53.8640896,135.687222 L30.8360178,147.845528 C26.6896763,150.034514 21.8331032,146.518638 22.6169658,141.896763 L26.9734622,116.22258 C27.2848596,114.387943 26.6743366,112.51649 25.3382421,111.218745 L6.65899678,93.0763921 C3.29498389,89.8090198 5.137291,84.1026231 9.77757325,83.4200031 L35.5391931,79.6295444 C37.3815002,79.3595644 38.972235,78.1983433 39.792913,76.5278417 L51.2762694,53.1561589 C53.3440712,48.9484584 59.3403896,48.9377205 61.4219972,53.1377512" id="Fill-1" fill="#FFF3B6"></path>
            <path d="M28.1853045,153.113208 C26.0745513,153.113208 23.9760699,152.452063 22.1813162,151.154318 C18.9937107,148.84875 17.4213836,145.006136 18.07946,141.128241 L22.4359564,115.452523 C22.4942476,115.110446 22.3807332,114.760699 22.1322289,114.519865 L3.45298359,96.3775119 C0.630464795,93.6347599 -0.37122258,89.6065347 0.839085749,85.8620954 C2.0478601,82.120724 5.21705783,79.4393312 9.10722503,78.8686915 L34.8688449,75.0782329 C35.2124559,75.0276116 35.5100476,74.8097868 35.6634453,74.4983893 L47.1452677,51.1267066 C48.8801963,47.5970241 52.400675,45.3988342 56.3353275,45.3911643 L56.3537352,45.3911643 C60.2807179,45.3911643 63.8011965,47.5755484 65.5437951,51.094493 L77.1115202,74.4247584 C77.2664519,74.7361559 77.5609756,74.9509127 77.9045866,75 L103.68308,78.69842 C107.577849,79.2598558 110.756251,81.9289768 111.977297,85.6672803 C113.199877,89.4071177 112.210462,93.4384108 109.398681,96.1888326 L90.7853965,114.397147 C90.5368922,114.639515 90.4233778,114.990796 90.4832029,115.332873 L94.931738,140.988649 C95.6036202,144.86501 94.0466329,148.71376 90.8666973,151.0316 C87.6898297,153.34944 83.5511582,153.659304 80.0644271,151.829268 L56.9934039,139.755331 C56.6866084,139.594263 56.3199877,139.597331 56.0101243,139.756865 L32.9851204,151.915171 C31.4680166,152.715907 29.8220586,153.113208 28.1853045,153.113208 L28.1853045,153.113208 Z M56.3537352,54.5950299 L56.3506673,54.5950299 C55.9165516,54.5965639 55.5974843,54.794447 55.4057371,55.1856113 L43.9239147,78.558828 C42.4344225,81.5884338 39.5490106,83.6915171 36.2080074,84.1839239 L10.4463875,87.9728486 C10.0153398,88.0372757 9.73001994,88.2796441 9.59656389,88.6922841 C9.46310784,89.107992 9.55361252,89.4715447 9.86654395,89.7752723 L28.5427213,107.916091 C30.9664059,110.270747 32.0754717,113.662372 31.5109679,116.992637 L27.1544715,142.66682 C27.0808406,143.0948 27.2235005,143.441479 27.5778494,143.697653 C27.9275963,143.949225 28.3003528,143.978371 28.6869152,143.775886 L51.714987,131.616045 C54.7016414,130.039116 58.2712072,130.034514 61.2639975,131.60224 L84.3350207,143.676177 C84.7154472,143.878662 85.0928056,143.851051 85.4440865,143.594877 C85.7969014,143.338702 85.9364933,142.992023 85.8628624,142.560976 L81.4143274,116.9052 C80.8390857,113.578003 81.9358797,110.18331 84.3457586,107.820985 L102.963645,89.6096027 C103.275042,89.3058751 103.364013,88.9407885 103.229023,88.5281485 C103.094033,88.1124406 102.807179,87.8716061 102.374597,87.810247 L76.5991717,84.111827 C73.2581684,83.633226 70.3650867,81.5393465 68.8648566,78.5112747 L57.3001994,55.1810094 C57.1053843,54.792913 56.7878509,54.5950299 56.3537352,54.5950299 L56.3537352,54.5950299 Z" id="Fill-2" fill="#FFDC0D"></path>
            <path d="M151.461881,82.5502378 L156.741832,115.96027 C157.120724,118.348673 158.6501,120.399601 160.831416,121.442706 L191.348366,136.032367 C196.843074,138.660071 196.939715,146.448075 191.512502,149.210769 L161.369842,164.558214 C159.214603,165.656542 157.737383,167.744286 157.41985,170.141893 L152.972849,203.673109 C152.172112,209.710845 144.796748,212.209695 140.490873,207.902286 L116.57923,183.976837 C114.870379,182.266452 112.428287,181.505599 110.049087,181.944317 L76.7847829,188.078693 C70.7946004,189.183157 66.1389784,182.939868 68.906274,177.512655 L84.2705936,147.379199 C85.3689216,145.225495 85.3367081,142.668354 84.1862249,140.540727 L68.0733241,110.799969 C65.1710385,105.444854 69.6701948,99.0865163 75.686455,100.042184 L109.093419,105.343611 C111.481822,105.722503 113.903973,104.901825 115.571407,103.148489 L138.877128,78.6339929 C143.074091,74.2192054 150.510815,76.5339776 151.461881,82.5502378" id="Fill-3" fill="#FFE876"></path>
            <path d="M145.655775,214.667127 C142.547937,214.667127 139.524467,213.446081 137.235772,211.154318 L113.324129,187.230403 C112.684461,186.589201 111.771744,186.311551 110.883571,186.469551 L77.6208007,192.603927 C73.1109066,193.441479 68.6132842,191.669735 65.8720663,187.994324 C63.1323823,184.321982 62.7258782,179.503758 64.8059518,175.421844 L80.1718055,145.289922 C80.5813775,144.48305 80.5691057,143.527382 80.139592,142.732781 L64.0266912,112.992023 C61.8438411,108.963798 62.1322289,104.136371 64.7783402,100.396533 C67.4259856,96.6551618 71.8867925,94.7760393 76.4074245,95.4970087 L109.812855,100.798435 C110.702562,100.936493 111.613744,100.631232 112.236539,99.9762233 L135.540727,75.4632612 C138.700721,72.1437337 143.380887,70.9288234 147.752723,72.2879276 C152.127627,73.6470318 155.290689,77.3055683 156.005522,81.8308023 L161.287007,115.240834 C161.429667,116.135143 162.000307,116.900598 162.816383,117.290229 L193.331799,131.87989 C197.467403,133.857187 200.070563,137.932965 200.128854,142.513422 C200.185611,147.095413 197.683694,151.234085 193.600245,153.312625 L163.459119,168.660071 C162.652247,169.069643 162.100015,169.850437 161.980365,170.747814 L157.534898,204.279031 C156.933579,208.822672 153.862556,212.556374 149.521399,214.025924 C148.249732,214.456972 146.945851,214.667127 145.655775,214.667127 L145.655775,214.667127 Z M111.382114,177.219666 C114.5237,177.219666 117.573247,178.460653 119.83433,180.724804 L143.745973,204.648719 C144.836631,205.740911 146.085289,205.472465 146.568492,205.308329 C147.054763,205.144194 148.208314,204.596564 148.412333,203.068722 L152.856266,169.535972 C153.374751,165.635067 155.77696,162.241908 159.282098,160.457892 L189.423224,145.108912 C190.797668,144.409419 190.931124,143.140819 190.924988,142.628471 C190.918853,142.114588 190.754717,140.850591 189.361865,140.184844 L158.846449,125.593649 C155.296825,123.89707 152.811781,120.563737 152.19819,116.676638 L146.915171,83.2696733 C146.674337,81.7479675 145.508514,81.2279491 145.017641,81.0745513 C144.528302,80.9257555 143.271974,80.687989 142.210462,81.8062586 L118.906274,106.319221 C116.195736,109.170885 112.264151,110.505446 108.370916,109.887253 L74.9654855,104.585826 C73.4422457,104.346526 72.5862862,105.29299 72.2917625,105.7133 C71.9957049,106.132075 71.3851818,107.253413 72.119957,108.607915 L88.2313238,138.348673 C90.1058445,141.807793 90.1579997,145.964872 88.3709158,149.468477 L73.0065961,179.603467 C72.3055683,180.976377 72.943703,182.082375 73.2504985,182.495015 C73.5572941,182.904587 74.4377972,183.834177 75.9518331,183.553459 L109.214603,177.419083 C109.937107,177.285627 110.662678,177.219666 111.382114,177.219666 L111.382114,177.219666 Z" id="Fill-4" fill="#FFDC0D"></path>
            <path d="M220.987882,54.1210308 L223.795061,71.8783556 C223.996012,73.148489 224.80902,74.2376131 225.968707,74.792913 L242.187452,82.5471698 C245.108145,83.9430894 245.160301,88.083295 242.274889,89.5513116 L226.254027,97.7090044 C225.108145,98.2919159 224.322749,99.4009817 224.154011,100.675717 L221.791686,118.499003 C221.36524,121.708084 217.444393,123.036509 215.157233,120.74628 L202.448228,108.029606 C201.53858,107.119957 200.240834,106.716521 198.976837,106.949686 L181.296211,110.209388 C178.113208,110.796901 175.637368,107.478908 177.108452,104.593496 L185.275349,88.5772358 C185.859794,87.4328885 185.842921,86.0737843 185.22933,84.9432428 L176.665133,69.1356036 C175.123485,66.2885412 177.514956,62.9107225 180.711766,63.4169351 L198.46909,66.234852 C199.73769,66.435803 201.026231,66.0001534 201.911336,65.069029 L214.298205,52.0394232 C216.528609,49.6924375 220.481669,50.9226875 220.987882,54.1210308" id="Fill-5" fill="#FFF3B6"></path>
            <path d="M217.896917,126.498696 C215.681853,126.498696 213.529682,125.628931 211.900598,123.998313 L199.450836,111.542414 L182.130695,114.736156 C178.924682,115.329805 175.717135,114.07041 173.767449,111.454978 C171.817763,108.84108 171.526308,105.409572 173.00813,102.504218 L181.009357,86.8146955 L172.620034,71.3276576 C171.066114,68.4606535 171.270133,65.0230097 173.155392,62.3615585 C175.037582,59.6985734 178.212916,58.3640129 181.434269,58.8732934 L198.828041,61.6329192 L210.963338,48.8671575 C213.210615,46.5032981 216.542414,45.6396687 219.657923,46.6076085 C222.773432,47.5755484 225.023777,50.1817763 225.531523,53.4031293 L228.281945,70.7984353 L244.172419,78.3962264 C247.116122,79.8013499 248.969167,82.7021015 249.010584,85.9648719 C249.050468,89.2261083 247.271054,92.1728793 244.364166,93.6516337 L228.666973,101.643657 L226.352201,119.10339 C225.924222,122.338549 223.739837,124.996932 220.647339,126.043105 C219.742292,126.3499 218.814235,126.498696 217.896917,126.498696 L217.896917,126.498696 Z M199.687069,102.281792 C201.92054,102.281792 204.091118,103.165363 205.701795,104.776039 L217.413714,116.495628 L219.591962,100.07133 C219.961651,97.2917625 221.672036,94.8757478 224.169351,93.6071483 L238.930818,86.0921921 L223.98374,78.9438564 C221.455745,77.7350821 219.687069,75.3650867 219.249885,72.5977911 L216.662065,56.231784 L205.246203,68.2397607 C203.317994,70.2692131 200.506213,71.2187452 197.749655,70.7800276 L181.385182,68.1845375 L189.275963,82.7511888 C190.610523,85.2132229 190.647339,88.1737997 189.375671,90.6680472 L181.848443,105.42798 L198.142353,102.424452 C198.656236,102.329345 199.173186,102.281792 199.687069,102.281792 L199.687069,102.281792 Z" id="Fill-6" fill="#FFDC0D"></path>
            <path d="M268.11014,29.588127 L251.21491,47.3899371" id="Fill-7" fill="#E6E6E6"></path>
            <path d="M251.213376,51.9918699 C250.075165,51.9918699 248.936954,51.573094 248.045713,50.7278724 C246.203405,48.9776039 246.126707,46.0661144 247.876975,44.2222734 L264.772204,26.4189293 C266.519405,24.5766222 269.432428,24.4968553 271.279337,26.2501917 C273.121644,28.0004602 273.198343,30.9119497 271.448075,32.7557908 L254.551312,50.5591348 C253.647799,51.5117349 252.432888,51.9918699 251.213376,51.9918699" id="Fill-8" fill="#CCCCCC"></path>
            <path d="M24.6356803,42.0685688 L12.5939561,18.5480902" id="Fill-9" fill="#F2F2F2"></path>
            <path d="M24.6387483,46.6705016 C22.9682467,46.6705016 21.3545022,45.756251 20.5414941,44.1655162 L8.49823593,20.6450376 C7.33854886,18.3824206 8.23439178,15.6089891 10.4970087,14.45237 C12.7534898,13.2942169 15.5330572,14.1869919 16.6896763,16.4496088 L28.7329345,39.9700874 C29.8910876,42.2327044 28.9952447,45.0061359 26.7341617,46.162755 C26.0622795,46.5079 25.3459119,46.6705016 24.6387483,46.6705016" id="Fill-10" fill="#E6E6E6"></path>
            <path d="M82.0770057,41.3552692 L90.1426599,16.1919006" id="Fill-11" fill="#E6E6E6"></path>
            <path d="M82.0785397,45.96027 C81.6122105,45.96027 81.1382114,45.888173 80.6718822,45.7378432 C78.2527995,44.9631845 76.919773,42.3722964 77.6944317,39.9516797 L85.7600859,14.7867771 C86.5332106,12.3676944 89.1287007,11.0346679 91.5477834,11.8108606 C93.9668661,12.5855193 95.2998926,15.1764074 94.5237,17.5970241 L86.4580457,42.7619267 C85.8337168,44.7131462 84.0236233,45.96027 82.0785397,45.96027" id="Fill-12" fill="#CCCCCC"></path>
            <path d="M118.208314,221.7449 L106.16659,245.265378" id="Fill-13" fill="#F2F2F2"></path>
            <path d="M106.161988,249.868845 C105.456358,249.868845 104.739991,249.706243 104.069643,249.361098 C101.807026,248.202945 100.911183,245.431048 102.07087,243.168431 L114.114128,219.647952 C115.272281,217.385335 118.04878,216.491026 120.306796,217.649179 C122.567879,218.807332 123.463721,221.580764 122.304034,223.841847 L110.26231,247.363859 C109.449302,248.954594 107.835558,249.868845 106.161988,249.868845" id="Fill-14" fill="#E6E6E6"></path>
            <path d="M173.57877,211.987268 L188.854119,233.548857" id="Fill-15" fill="#E6E6E6"></path>
            <path d="M188.858721,238.15079 C187.416782,238.15079 185.996318,237.474306 185.098942,236.208774 L169.823593,214.647185 C168.355576,212.573247 168.844915,209.701641 170.918853,208.232091 C172.99279,206.761006 175.864396,207.253413 177.335481,209.327351 L192.609296,230.887406 C194.078846,232.961344 193.587974,235.834484 191.51557,237.304034 C190.707164,237.876208 189.779107,238.15079 188.858721,238.15079" id="Fill-16" fill="#CCCCCC"></path>
            <path d="M200.831416,29.2936033 L197.11152,4.7330879" id="Fill-17" fill="#F2F2F2"></path>
            <path d="M200.82528,33.8940021 C198.588741,33.8940021 196.626783,32.26185 196.281638,29.9823593 L192.561743,5.42337782 C192.181316,2.9107225 193.908575,0.565270747 196.422764,0.184844301 C198.936954,-0.20478601 201.280871,1.53167664 201.661298,4.04433195 L205.381193,28.6033134 C205.76162,31.1159687 204.034361,33.4614205 201.520172,33.8418469 C201.287007,33.8786624 201.053843,33.8940021 200.82528,33.8940021" id="Fill-18" fill="#E6E6E6"></path>
        </g>
    </g>
</svg>