<?xml version="1.0" encoding="UTF-8" standalone="no"?>
<svg width="503px" height="502px" viewBox="0 0 503 502" version="1.1" xmlns="http://www.w3.org/2000/svg" xmlns:xlink="http://www.w3.org/1999/xlink">
    <!-- Generator: Sketch 3.8.3 (29802) - http://www.bohemiancoding.com/sketch -->
    <title>Slice 1</title>
    <desc>Created with Sketch.</desc>
    <defs></defs>
    <g id="Page-1" stroke="none" stroke-width="1" fill="none" fill-rule="evenodd">
        <g id="Imported-Layers-Copy" transform="translate(49.000000, 61.000000)">
            <path d="M169.936658,70.2552398 L99.7846497,190.069019 C98.6555562,191.997366 99.3022924,194.474552 101.22768,195.60459 C103.154415,196.734629 105.630875,196.087352 106.758621,194.160352 L176.910629,74.3452251 C178.039723,72.4182258 177.392987,69.939692 175.467599,68.8096532 C173.540865,67.6809629 171.065751,68.326892 169.936658,70.2552398" id="Fill-1" fill="#F8931E"></path>
            <path d="M229.131878,74.3452251 L299.283886,194.160352 C300.41298,196.087352 302.888093,196.734629 304.814828,195.60459 C306.740215,194.474552 307.386951,191.997366 306.259205,190.069019 L236.105849,70.2552398 C234.978103,68.326892 232.501643,67.6809629 230.574908,68.8096532 C228.649521,69.939692 228.002784,72.4182258 229.131878,74.3452251" id="Fill-2" fill="#F8931E"></path>
            <path d="M196.462271,72.0878445 C194.674315,72.0878445 193.038612,73.2839596 192.557602,75.0949883 L162.744413,187.38012 C162.170435,189.53906 163.454475,191.754637 165.612957,192.329096 C165.960578,192.420794 166.309546,192.465294 166.653125,192.465294 C168.441081,192.465294 170.076784,191.269179 170.557794,189.45815 L200.370983,77.1743676 C200.944961,75.0140786 199.659573,72.7985014 197.502439,72.225391 C197.154818,72.1323448 196.80585,72.0878445 196.462271,72.0878445" id="Fill-3" fill="#FCD4A5"></path>
            <path d="M215.158335,72.0878445 C214.814757,72.0878445 214.465789,72.1323448 214.118168,72.225391 C211.959686,72.7985014 210.675645,75.0140786 211.249624,77.1743676 L241.062812,189.45815 C241.543822,191.269179 243.179526,192.465294 244.967482,192.465294 C245.31106,192.465294 245.660028,192.420794 246.007649,192.329096 C248.166131,191.754637 249.450172,189.53906 248.876193,187.38012 L219.063005,75.0949883 C218.581995,73.2839596 216.946291,72.0878445 215.158335,72.0878445" id="Fill-4" fill="#FCD4A5"></path>
            <path d="M301.783252,341.348579 L103.271635,341.348579 C98.0842726,341.348579 93.8400667,337.10082 93.8400667,331.907766 L93.8400667,201.55415 C93.8400667,196.362445 98.0842726,192.114685 103.271635,192.114685 L301.783252,192.114685 C306.970615,192.114685 311.214821,196.362445 311.214821,201.55415 L311.214821,331.907766 C311.214821,337.10082 306.970615,341.348579 301.783252,341.348579" id="Fill-5" fill="#E4FFB0"></path>
            <path d="M301.783252,341.348579 L301.783252,337.303094 L103.271635,337.303094 C101.792227,337.301746 100.463723,336.704362 99.4693659,335.714567 C98.4790512,334.718029 97.883515,333.388413 97.8821676,331.907766 L97.8821676,201.55415 C97.883515,200.073503 98.4790512,198.743887 99.4693659,197.747349 C100.463723,196.757554 101.792227,196.161519 103.271635,196.16017 L301.783252,196.16017 C303.262661,196.161519 304.591165,196.757554 305.586869,197.747349 C306.575836,198.743887 307.17272,200.073503 307.17272,201.55415 L307.17272,331.907766 C307.17272,333.388413 306.575836,334.718029 305.586869,335.714567 C304.591165,336.704362 303.262661,337.301746 301.783252,337.303094 L301.783252,345.394064 C305.491206,345.394064 308.879834,343.867568 311.302399,341.436231 C313.731702,339.010289 315.258269,335.620172 315.256921,331.907766 L315.256921,201.55415 C315.258269,197.843092 313.731702,194.452976 311.302399,192.027033 C308.879834,189.595697 305.491206,188.067852 301.783252,188.069201 L103.271635,188.069201 C99.5636816,188.067852 96.176401,189.595697 93.7524879,192.027033 C91.3231852,194.452976 89.7966185,197.843092 89.7979658,201.55415 L89.7979658,331.907766 C89.7966185,335.620172 91.3231852,339.010289 93.7524879,341.436231 C96.176401,343.867568 99.5636816,345.394064 103.271635,345.394064 L301.783252,345.394064 L301.783252,341.348579" id="Fill-6" fill="#8CC63F"></path>
            <polyline id="Fill-7" fill="#BEEB71" points="98.1071779 337.303094 203.875484 209.194723 308.361097 337.303094"></polyline>
            <path d="M101.22229,339.87872 L203.856621,215.569059 L305.229817,339.861189 C306.641857,341.591308 309.188381,341.848871 310.917052,340.436997 C312.647072,339.023774 312.904419,336.475118 311.492378,334.743651 L207.006765,206.636628 C206.238766,205.696727 205.100241,205.153283 203.887611,205.149238 C202.673633,205.146541 201.532413,205.681893 200.759025,206.617749 L94.9907181,334.724772 C93.569246,336.448148 93.8104246,338.998152 95.5323596,340.420815 C97.2529472,341.844825 99.8008181,341.602096 101.223638,339.87872 L101.22229,339.87872" id="Fill-8" fill="#8CC63F"></path>
            <path d="M310.991158,202.452248 C310.991158,262.156863 266.170996,314.60253 205.896535,314.60253 C145.622074,314.60253 94.065077,262.156863 94.065077,202.452248" id="Fill-9" fill="#BEEB71"></path>
            <path d="M306.949057,202.452248 C306.953099,231.288465 296.112184,258.377032 278.058814,278.191817 C269.034151,288.100558 258.216141,296.188831 246.05346,301.801267 C233.888083,307.412355 220.378035,310.555696 205.896535,310.557045 C176.948356,310.562439 149.984848,297.949965 130.244575,278.065058 C110.505649,258.182848 98.100441,231.123948 98.1071779,202.452248 C98.1071779,200.21914 96.297664,198.408112 94.065077,198.408112 C91.8324899,198.408112 90.0229761,200.21914 90.0229761,202.452248 C90.0297129,233.486511 103.40233,262.502078 124.510181,283.767844 C145.618032,305.032261 174.568906,318.642621 205.896535,318.648015 C221.551591,318.649363 236.247323,315.236322 249.438045,309.149216 C269.229519,300.01586 285.626975,284.893837 297.072857,266.296743 C308.518739,247.6983 315.031911,225.60321 315.033259,202.452248 C315.033259,200.21914 313.223745,198.408112 310.991158,198.408112 C308.758571,198.408112 306.949057,200.21914 306.949057,202.452248" id="Fill-10" fill="#8CC63F"></path>
            <path d="M175.580778,228.973099 C175.580778,233.069826 172.262213,236.389821 168.17026,236.389821 C164.076959,236.389821 160.759742,233.069826 160.759742,228.973099 C160.759742,224.877719 164.076959,221.556376 168.17026,221.556376 C172.262213,221.556376 175.580778,224.877719 175.580778,228.973099" id="Fill-11" fill="#8CC63F"></path>
            <path d="M244.296493,228.973099 C244.296493,233.069826 240.977928,236.389821 236.885975,236.389821 C232.792674,236.389821 229.475457,233.069826 229.475457,228.973099 C229.475457,224.877719 232.792674,221.556376 236.885975,221.556376 C240.977928,221.556376 244.296493,224.877719 244.296493,228.973099" id="Fill-12" fill="#8CC63F"></path>
            <path d="M187.033397,263.934179 C187.034745,266.256288 187.570997,268.515017 188.481817,270.607881 C189.854784,273.745829 192.06716,276.548001 194.919536,278.653002 C197.765175,280.747215 201.320877,282.138862 205.222851,282.138862 C207.81788,282.14021 210.276825,281.519902 212.456864,280.486955 C215.730966,278.932141 218.404142,276.487319 220.317403,273.620419 C222.221233,270.750822 223.402874,267.420039 223.412305,263.934179 C223.412305,261.699723 221.602791,259.888695 219.370204,259.888695 C217.137617,259.888695 215.328103,261.699723 215.328103,263.934179 C215.329451,264.984657 215.073451,266.180772 214.553367,267.37419 C213.778631,269.167688 212.40297,270.915338 210.740319,272.130332 C209.069584,273.354765 207.180575,274.047892 205.222851,274.047892 C203.911863,274.047892 202.648033,273.740435 201.443487,273.17137 C199.639363,272.325864 197.99288,270.85061 196.855702,269.133976 C195.707746,267.422736 195.108167,265.506525 195.117599,263.934179 C195.117599,261.699723 193.308085,259.888695 191.075498,259.888695 C188.842911,259.888695 187.033397,261.699723 187.033397,263.934179" id="Fill-13" fill="#8CC63F"></path>
            <path d="M309.59798,240.096834 C309.910569,240.222244 315.409174,242.629307 323.202344,242.644141 C328.295392,242.648186 334.427259,241.568042 340.428431,237.987788 C346.43634,234.41967 352.180166,228.386503 356.653424,219.037388 C357.619486,217.024085 356.771992,214.606233 354.760373,213.639362 C352.747407,212.672491 350.332926,213.520695 349.366863,215.535346 C345.433899,223.707226 340.816473,228.329867 336.293362,231.036296 C331.764861,233.731937 327.194593,234.547777 323.202344,234.553171 C320.165379,234.553171 317.494898,234.063667 315.622058,233.578209 C314.685638,233.33548 313.948628,233.094099 313.466271,232.92284 C313.225092,232.836537 313.04724,232.769112 312.93945,232.72596 L312.831661,232.68146 L312.79124,232.775855 L312.833008,232.682808 L312.831661,232.68146 L312.79124,232.775855 L312.833008,232.682808 C310.786358,231.788756 308.404213,232.723263 307.510909,234.771627 C306.617605,236.818642 307.552677,239.20413 309.59798,240.098182 L309.59798,240.096834" id="Fill-14" fill="#8CC63F"></path>
            <path d="M91.2639011,233.737331 C91.1426381,233.880272 86.4807484,239.25807 81.7743956,247.6983 C79.4232402,251.920438 77.0586112,256.911218 75.2666132,262.427911 C73.4759625,267.941907 72.2539006,273.989907 72.2525533,280.302212 C72.2525533,282.66882 72.4250162,285.071838 72.8076685,287.491038 C73.1552891,289.697176 75.2261922,291.203445 77.4304845,290.855533 C79.6361242,290.506273 81.1411331,288.434985 80.7921651,286.227498 C80.4809233,284.253302 80.336755,282.27506 80.336755,280.302212 C80.3354077,275.04443 81.3661434,269.817663 82.954689,264.929369 C85.3327917,257.596253 88.9666404,251.052007 92.0009108,246.388911 C93.518046,244.056015 94.8815814,242.192395 95.8557277,240.926158 C96.3434745,240.292366 96.7328636,239.808256 96.9942528,239.490011 C97.1249474,239.32954 97.2246525,239.210873 97.2879788,239.136705 L97.3553471,239.055796 L97.3688208,239.040962 L96.9309265,238.662035 L97.3674734,239.042311 L97.3688208,239.040962 L96.9309265,238.662035 L97.3674734,239.042311 C98.8307139,237.355343 98.6515141,234.799945 96.9659581,233.33548 C95.280402,231.871014 92.7271416,232.050364 91.2639011,233.737331" id="Fill-15" fill="#8CC63F"></path>
            <path d="M226.496428,342.397708 C226.522028,342.48536 228.718236,350.678816 232.179622,359.386048 C233.919073,363.747081 235.958986,368.229478 238.319573,372.002567 C239.505256,373.89046 240.769086,375.608443 242.216159,377.068863 C243.664578,378.514449 245.31645,379.769898 247.44529,380.41313 C248.038131,380.588434 248.593246,380.645071 249.089077,380.64642 C250.087476,380.639677 250.875686,380.436055 251.59518,380.198719 C252.842842,379.769898 253.909956,379.180606 254.940692,378.546813 C256.471301,377.594776 257.872563,376.520025 258.93294,375.665079 C259.989276,374.810134 260.68856,374.179038 260.727633,374.143977 C262.386242,372.647148 262.516937,370.089053 261.022707,368.430404 C259.527129,366.771755 256.971174,366.639602 255.313913,368.136432 L255.886544,368.771573 L255.313913,368.135083 L255.313913,368.136432 L255.886544,368.771573 L255.313913,368.135083 C255.286965,368.162053 253.835851,369.457957 252.177242,370.656769 C251.354001,371.255501 250.472823,371.828611 249.787013,372.184614 C249.447477,372.362615 249.157793,372.48398 248.998804,372.535222 L248.90853,372.563541 L248.88293,372.570283 L249.089077,373.535806 L249.089077,372.55545 C248.935478,372.55545 248.88293,372.570283 248.88293,372.570283 L249.089077,373.535806 L249.089077,372.55545 L249.089077,374.837103 L249.733119,372.65389 C249.44613,372.568935 249.226509,372.55545 249.089077,372.55545 L249.089077,374.837103 L249.733119,372.65389 C249.489245,372.595905 248.792657,372.226417 247.949205,371.364729 C246.453628,369.881384 244.644114,367.098091 243.00841,363.844172 C240.529255,358.95453 238.318226,353.010364 236.764712,348.337829 C235.985934,346.000887 235.366145,343.976796 234.944419,342.543346 C234.732882,341.827295 234.571198,341.259578 234.462062,340.873909 C234.408167,340.681074 234.367746,340.53274 234.340799,340.435648 L234.303072,340.298102 C233.723705,338.139161 231.505939,336.860788 229.350151,337.440641 C227.194364,338.021842 225.91706,340.240116 226.496428,342.397708" id="Fill-16" fill="#8CC63F"></path>
            <path d="M177.317534,340.298102 L177.295976,340.374966 C177.062882,341.236654 174.843768,349.229184 171.622214,357.159683 C170.018847,361.117516 168.150049,365.06456 166.27182,367.989446 C165.339442,369.449866 164.403022,370.64733 163.593254,371.442942 C162.784834,372.25069 162.124624,372.597253 161.88614,372.65389 L162.530182,374.835755 L162.530182,372.55545 C162.394098,372.55545 162.174477,372.568935 161.887488,372.65389 L162.530182,374.835755 L162.530182,372.55545 L162.530182,373.618064 L162.737676,372.570283 C162.730939,372.568935 162.668961,372.55545 162.530182,372.55545 L162.530182,373.618064 L162.737676,372.570283 L162.62854,372.537919 C162.345592,372.451616 161.675951,372.130674 160.968583,371.688368 C159.892037,371.024908 158.680754,370.110629 157.780713,369.381093 C157.327998,369.015651 156.949388,368.694709 156.689346,368.470859 C156.559999,368.358934 156.458946,368.271281 156.392925,368.213296 L156.321515,368.149917 L156.306694,368.136432 C154.649432,366.639602 152.093477,366.771755 150.5979,368.430404 C149.10367,370.089053 149.234365,372.647148 150.892973,374.143977 C150.954952,374.199265 152.538108,375.631367 154.603622,377.140333 C155.643789,377.89549 156.795788,378.672223 158.036713,379.327592 C158.660544,379.655276 159.308627,379.954642 160.024079,380.198719 C160.743573,380.436055 161.53313,380.639677 162.530182,380.64642 C163.02736,380.645071 163.582475,380.588434 164.175317,380.414479 C166.304157,379.769898 167.956028,378.514449 169.404448,377.068863 C171.919982,374.513465 173.951811,371.169197 175.821957,367.502639 C178.600227,362.011568 180.890751,355.793657 182.525107,350.897272 C184.154074,346.006281 185.109357,342.452997 185.124178,342.397708 C185.703546,340.240116 184.426242,338.021842 182.270455,337.440641 C180.114668,336.860788 177.896902,338.14051 177.317534,340.298102" id="Fill-17" fill="#8CC63F"></path>
            <path d="M378.399927,56.7716386 L28.5048954,56.7716386 C25.0771939,56.7716386 22.2733232,53.9654205 22.2733232,50.5348493 C22.2733232,47.1056266 25.0771939,44.29806 28.5048954,44.29806 L378.399927,44.29806 C381.827628,44.29806 384.631499,47.1056266 384.631499,50.5348493 C384.631499,53.9654205 381.827628,56.7716386 378.399927,56.7716386" id="Fill-18" fill="#F2F2F2"></path>
            <path d="M378.399927,56.7716386 L378.399927,52.7261536 L28.5048954,52.7261536 C27.9053171,52.7261536 27.3771493,52.4888185 26.9621603,52.078876 C26.5525607,51.6635396 26.3167715,51.1349295 26.3154241,50.5348493 C26.3167715,49.9361175 26.5525607,49.406159 26.9621603,48.9908225 C27.3771493,48.5808801 27.9053171,48.3448934 28.5048954,48.3435449 L378.399927,48.3435449 C378.999505,48.3448934 379.527673,48.5808801 379.942662,48.9908225 C380.352261,49.406159 380.588051,49.9361175 380.589398,50.5348493 C380.588051,51.1349295 380.352261,51.6635396 379.942662,52.078876 C379.527673,52.4888185 378.999505,52.7261536 378.399927,52.7261536 L378.399927,60.8171235 C381.22805,60.818472 383.814995,59.6520238 385.658193,57.8005402 C387.508127,55.9557991 388.6736,53.3653402 388.6736,50.5348493 C388.6736,47.7043583 387.508127,45.115248 385.658193,43.2705068 C383.814995,41.4190232 381.22805,40.2525751 378.399927,40.2525751 L28.5048954,40.2525751 C25.6767722,40.2525751 23.0898276,41.4190232 21.2452822,43.2705068 C19.3966948,45.115248 18.229875,47.7043583 18.2312223,50.5348493 C18.229875,53.3653402 19.3966948,55.9557991 21.2452822,57.8005402 C23.0898276,59.6520238 25.6767722,60.818472 28.5048954,60.8171235 L378.399927,60.8171235 L378.399927,56.7716386" id="Fill-19" fill="#FA7470"></path>
            <path d="M359.746979,63.3792639 L359.746979,4.04548493" id="Fill-20" fill="#F2F2F2"></path>
            <path d="M363.789079,63.3792639 L363.789079,4.04548493 C363.789079,1.81102875 361.979566,0 359.746979,0 C357.514391,0 355.704878,1.81102875 355.704878,4.04548493 L355.704878,63.3792639 C355.704878,65.6137201 357.514391,67.4247489 359.746979,67.4247489 C361.979566,67.4247489 363.789079,65.6137201 363.789079,63.3792639" id="Fill-21" fill="#FBBAB8"></path>
            <path d="M359.410137,76.1346779 L359.410137,76.1346779 C349.921979,76.1346779 342.231208,68.4374686 342.231208,58.941367 L342.231208,42.1296801 C342.231208,32.6335785 349.921979,24.9363691 359.410137,24.9363691 C368.898295,24.9363691 376.589066,32.6335785 376.589066,42.1296801 L376.589066,58.941367 C376.589066,68.4374686 368.898295,76.1346779 359.410137,76.1346779" id="Fill-22" fill="#FBBAB8"></path>
            <path d="M359.410137,76.1346779 L359.410137,72.089193 C355.769551,72.086496 352.511618,70.623379 350.121389,68.2378913 C347.737897,65.8456613 346.276004,62.5850004 346.273309,58.941367 L346.273309,42.1296801 C346.276004,38.4860467 347.737897,35.2240373 350.121389,32.8318072 C352.511618,30.4463196 355.769551,28.9832026 359.410137,28.9818541 C363.050722,28.9832026 366.308656,30.4463196 368.698885,32.8318072 C371.082377,35.2240373 372.54427,38.4860467 372.546965,42.1296801 L372.546965,58.941367 C372.54427,62.5850004 371.082377,65.8456613 368.698885,68.2378913 C366.308656,70.623379 363.050722,72.086496 359.410137,72.089193 L359.410137,80.1801629 C365.257709,80.1815114 370.587893,77.7960237 374.415763,73.9595555 C378.249022,70.1284813 380.633861,64.7938352 380.631166,58.941367 L380.631166,42.1296801 C380.633861,36.2772119 378.249022,30.9412173 374.415763,27.1114915 C370.587893,23.2736748 365.257709,20.8881872 359.410137,20.8908842 C353.562564,20.8881872 348.23238,23.2736748 344.404511,27.1114915 C340.569905,30.9412173 338.186412,36.2772119 338.189107,42.1296801 L338.189107,58.941367 C338.186412,64.7938352 340.569905,70.1284813 344.404511,73.9595555 C348.23238,77.7960237 353.562564,80.1815114 359.410137,80.1801629 L359.410137,76.1346779" id="Fill-23" fill="#FA7470"></path>
            <path d="M47.1578436,63.3792639 L47.1578436,4.04548493" id="Fill-24" fill="#F2F2F2"></path>
            <path d="M51.1999445,63.3792639 L51.1999445,4.04548493 C51.1999445,1.81102875 49.3904307,0 47.1578436,0 C44.9252566,0 43.1157427,1.81102875 43.1157427,4.04548493 L43.1157427,63.3792639 C43.1157427,65.6137201 44.9252566,67.4247489 47.1578436,67.4247489 C49.3904307,67.4247489 51.1999445,65.6137201 51.1999445,63.3792639" id="Fill-25" fill="#FBBAB8"></path>
            <path d="M46.8210019,76.1346779 L46.8210019,76.1346779 C37.3328437,76.1346779 29.6420731,68.4374686 29.6420731,58.941367 L29.6420731,42.1296801 C29.6420731,32.6335785 37.3328437,24.9363691 46.8210019,24.9363691 C56.30916,24.9363691 63.9999306,32.6335785 63.9999306,42.1296801 L63.9999306,58.941367 C63.9999306,68.4374686 56.30916,76.1346779 46.8210019,76.1346779" id="Fill-26" fill="#FBBAB8"></path>
            <path d="M46.8210019,76.1346779 L46.8210019,72.089193 C43.1804164,72.086496 39.922483,70.623379 37.5322541,68.2378913 C35.1487619,65.8456613 33.6855214,62.5850004 33.684174,58.941367 L33.684174,42.1296801 C33.6855214,38.4860467 35.1487619,35.2240373 37.5322541,32.8318072 C39.922483,30.4463196 43.1804164,28.9832026 46.8210019,28.9818541 C50.4615874,28.9832026 53.7195207,30.4463196 56.1097497,32.8318072 C58.4932419,35.2240373 59.955135,38.4860467 59.9578298,42.1296801 L59.9578298,58.941367 C59.955135,62.5850004 58.4932419,65.8456613 56.1097497,68.2378913 C53.7195207,70.623379 50.4615874,72.086496 46.8210019,72.089193 L46.8210019,80.1801629 C52.6685745,80.1815114 57.9987582,77.7960237 61.8266277,73.9595555 C65.6598867,70.1284813 68.0433789,64.7938352 68.0420315,58.941367 L68.0420315,42.1296801 C68.0433789,36.2772119 65.6598867,30.9412173 61.8266277,27.1114915 C57.9987582,23.2736748 52.6685745,20.8881872 46.8210019,20.8908842 C40.9734293,20.8881872 35.6432456,23.2736748 31.815376,27.1114915 C27.9807697,30.9412173 25.5972775,36.2772119 25.5999723,42.1296801 L25.5999723,58.941367 C25.5972775,64.7938352 27.9807697,70.1284813 31.815376,73.9595555 C35.6432456,77.7960237 40.9734293,80.1815114 46.8210019,80.1801629 L46.8210019,76.1346779" id="Fill-27" fill="#FA7470"></path>
            <path d="M214.062926,14.7012922 L214.062926,39.9154513 C214.062926,45.7814045 209.31211,50.5348493 203.452411,50.5348493 C197.592712,50.5348493 192.841896,45.7814045 192.841896,39.9154513 L192.841896,14.7012922 C192.841896,8.83668759 197.592712,4.0818943 203.452411,4.0818943 C209.31211,4.0818943 214.062926,8.83668759 214.062926,14.7012922" id="Fill-28" fill="#FBBAB8"></path>
            <path d="M214.062926,14.7012922 L210.020825,14.7012922 L210.020825,39.9154513 C210.01813,41.7440105 209.291899,43.3622045 208.096785,44.5637135 C206.894934,45.7598286 205.279441,46.4880159 203.452411,46.4893643 C201.625381,46.4880159 200.009888,45.7598286 198.808037,44.5637135 C197.612923,43.3622045 196.885345,41.7440105 196.883997,39.9154513 L196.883997,14.7012922 C196.885345,12.8727331 197.612923,11.2545391 198.808037,10.0530301 C200.009888,8.85691501 201.625381,8.12872772 203.452411,8.12737923 C205.279441,8.12872772 206.894934,8.85691501 208.096785,10.0530301 C209.291899,11.2545391 210.01813,12.8727331 210.020825,14.7012922 L218.105027,14.7012922 C218.106374,10.6638983 216.458544,6.97171903 213.813663,4.33136587 C211.174171,1.68427023 207.486428,0.0337123744 203.452411,0.0364093644 C199.418394,0.0337123744 195.730651,1.68427023 193.091159,4.33136587 C190.446278,6.97171903 188.797101,10.6638983 188.799795,14.7012922 L188.799795,39.9154513 C188.797101,43.9528453 190.446278,47.6450245 193.091159,50.2853777 C195.730651,52.9324734 199.418394,54.5830312 203.452411,54.5803342 C207.486428,54.5830312 211.174171,52.9324734 213.813663,50.2853777 C216.458544,47.6450245 218.106374,43.9528453 218.105027,39.9154513 L218.105027,14.7012922 L214.062926,14.7012922" id="Fill-29" fill="#FA7470"></path>
            <path d="M220.065446,76.1346779 L186.839376,76.1346779 C172.771518,76.1346779 161.260962,64.6144853 161.260962,50.5348493 C161.260962,36.4552132 172.771518,24.9363691 186.839376,24.9363691 L220.065446,24.9363691 C234.133304,24.9363691 245.64386,36.4552132 245.64386,50.5348493 C245.64386,64.6144853 234.133304,76.1346779 220.065446,76.1346779" id="Fill-30" fill="#FCBAB8"></path>
            <path d="M220.065446,76.1346779 L220.065446,72.089193 L186.839376,72.089193 C180.919046,72.0878445 175.555178,69.6740385 171.632993,65.7539636 C167.716197,61.8284947 165.30441,56.4601362 165.303063,50.5348493 C165.30441,44.6109108 167.716197,39.2412038 171.632993,35.315735 C175.555178,31.3970086 180.919046,28.9818541 186.839376,28.9818541 L220.065446,28.9818541 C225.984429,28.9818541 231.349644,31.3970086 235.271829,35.315735 C239.187278,39.2412038 241.600412,44.6109108 241.601759,50.5348493 C241.600412,56.4601362 239.187278,61.8284947 235.271829,65.7539636 C231.349644,69.6740385 225.984429,72.0878445 220.065446,72.089193 L220.065446,80.1801629 C228.214321,80.1815114 235.638313,76.8358953 240.988707,71.4756278 C246.344491,66.1207542 249.687308,58.6905469 249.685961,50.5348493 C249.687308,42.3805002 246.344491,34.9502928 240.988707,29.5954193 C235.638313,24.2351517 228.214321,20.8895357 220.065446,20.8908842 L186.839376,20.8908842 C178.690501,20.8895357 171.266509,24.2351517 165.916115,29.5954193 C160.560331,34.9502928 157.217514,42.3805002 157.218861,50.5348493 C157.217514,58.6905469 160.560331,66.1207542 165.916115,71.4756278 C171.266509,76.8358953 178.690501,80.1815114 186.839376,80.1801629 L220.065446,80.1801629 L220.065446,76.1346779" id="Fill-31" fill="#FA7470"></path>
            <path d="M4.04210088,10.7879598 L86.2314855,10.7879598" id="Fill-32" fill="#E6E6E6"></path>
            <path d="M4.04210088,14.8334448 L86.2314855,14.8334448 C88.4640725,14.8334448 90.2735864,13.022416 90.2735864,10.7879598 C90.2735864,8.55350364 88.4640725,6.74247489 86.2314855,6.74247489 L4.04210088,6.74247489 C1.80951383,6.74247489 0,8.55350364 0,10.7879598 C0,13.022416 1.80951383,14.8334448 4.04210088,14.8334448" id="Fill-33" fill="#FA7470"></path>
            <path d="M317.978603,10.7879598 L400.167987,10.7879598" id="Fill-34" fill="#E6E6E6"></path>
            <path d="M317.978603,14.8334448 L400.167987,14.8334448 C402.400574,14.8334448 404.210088,13.022416 404.210088,10.7879598 C404.210088,8.55350364 402.400574,6.74247489 400.167987,6.74247489 L317.978603,6.74247489 C315.746016,6.74247489 313.936502,8.55350364 313.936502,10.7879598 C313.936502,13.022416 315.746016,14.8334448 317.978603,14.8334448" id="Fill-35" fill="#FA7470"></path>
        </g>
    </g>
</svg>