<?xml version="1.0" encoding="UTF-8" standalone="no"?>
<svg width="503px" height="502px" viewBox="0 0 503 502" version="1.1" xmlns="http://www.w3.org/2000/svg" xmlns:xlink="http://www.w3.org/1999/xlink">
    <!-- Generator: Sketch 3.8.3 (29802) - http://www.bohemiancoding.com/sketch -->
    <title>Slice 1</title>
    <desc>Created with Sketch.</desc>
    <defs></defs>
    <g id="Page-1" stroke="none" stroke-width="1" fill="none" fill-rule="evenodd">
        <g id="Imported-Layers" transform="translate(38.000000, 26.000000)">
            <path d="M246.001054,255.223666 C246.001054,255.223666 273.121527,197.561946 312.950839,192.706392 C320.056559,191.841547 340.678796,198.486595 332.852839,214.920955 C319.906989,242.110679 272.65671,250.059896 256.181011,304.37264" id="Fill-1" fill="#FFD9B6"></path>
            <path d="M256.181011,311.275301 C255.518301,311.275301 254.844086,311.178696 254.174473,310.976286 C250.527269,309.869928 248.467806,306.017226 249.572323,302.369235 C260.24471,267.200393 283.156516,250.165701 301.567419,236.477684 C312.679312,228.215652 322.277097,221.080678 326.619226,211.9561 C328.632667,207.726179 327.300344,205.874582 326.731978,205.08334 C323.855634,201.090331 316.250581,199.264035 313.783828,199.556151 C278.15628,203.901078 252.501591,257.618091 252.246172,258.15862 C250.623914,261.6088 246.50729,263.092378 243.062581,261.468493 C239.613269,259.846908 238.129075,255.736593 239.751333,252.288712 C240.924882,249.793082 268.993398,191.112408 312.115548,185.858933 C318.965849,185.02399 331.757527,188.437368 337.935914,197.021418 C342.241226,202.997131 342.648516,210.408119 339.086452,217.888111 C333.267032,230.108651 321.872108,238.579994 309.80757,247.550464 C292.149118,260.677252 272.136667,275.559031 262.785097,306.376045 C261.883075,309.354701 259.142495,311.275301 256.181011,311.275301" id="Fill-2" fill="#FFC988"></path>
            <path d="M205.230602,167.84669 C161.461849,149.990855 117.840366,202.194389 130.696473,217.819107 C143.582495,233.482927 156.977054,213.752494 167.359505,209.591576 C183.331269,203.190341 205.755247,200.5061 214.575269,223.346297 C236.023591,278.887305 184.157355,283.701457 184.157355,283.701457 C158.348495,285.543854 151.194452,267.467207 145.444065,245.459655 C143.688344,238.741003 122.398796,220.583852 117.792043,248.224399 C108.638366,303.123674 149.926559,307.010878 166.301011,318.205564 C192.574688,336.169505 158.928366,429.167975 158.928366,429.167975 C158.928366,429.167975 160.191656,443.909447 215.336925,443.909447 C272.647505,443.909447 280.600022,429.167975 280.600022,429.167975 C280.600022,429.167975 267.695591,359.18451 265.85243,327.419847 C265.85243,327.419847 258.34172,280.932112 291.976538,252.62683" id="Fill-3" fill="#FFD9B6"></path>
            <path d="M215.336925,450.809809 C159.846495,450.809809 152.593505,436.089038 152.048151,429.759106 C151.963011,428.763154 152.096473,427.762602 152.434731,426.821852 C165.642903,390.286739 177.468129,334.198302 162.40529,323.900663 C159.602581,321.984662 155.49286,320.116964 151.143828,318.141161 C131.890731,309.386902 102.800538,296.16351 110.983161,247.09044 C113.877914,229.71993 123.13514,226.727474 128.395398,226.490561 C128.811892,226.47216 129.232989,226.46756 129.651785,226.483661 C128.211312,225.335901 126.780043,223.923627 125.362581,222.200837 C118.664151,214.06071 120.689097,201.028228 130.779312,187.340211 C138.697312,176.594048 150.299333,167.46717 162.607785,162.296499 C177.847806,155.892964 193.492817,155.605449 207.840022,161.456955 C211.369871,162.896831 213.063462,166.924342 211.622989,170.452727 C210.182516,173.985712 206.151032,175.6763 202.623484,174.234125 C177.231118,163.874382 152.38871,181.288594 141.893505,195.52634 C135.178968,204.637117 134.421914,211.482275 136.028065,213.437378 C140.344882,218.686253 143.202817,218.138824 154.020172,209.994097 C157.651269,207.256954 161.079871,204.673919 164.789204,203.188041 C175.022086,199.086926 189.974473,195.392933 203.069892,201.090331 C211.291634,204.667018 217.329656,211.318967 221.015978,220.864467 C228.660151,240.657003 228.577312,257.077563 220.774366,269.663822 C209.344925,288.094687 185.793419,290.479912 184.797054,290.571917 C150.697419,292.991644 143.241935,264.332143 138.766344,247.203146 C137.894237,245.029532 132.132344,239.923265 128.880925,240.286684 C127.477269,240.433891 125.611097,243.297541 124.600925,249.358359 C118.162516,287.984282 138.718022,297.331971 156.857398,305.577903 C161.770194,307.80902 166.411462,309.91823 170.199032,312.508166 C197.878667,331.433557 174.120065,406.670497 166.517312,428.420436 C169.414366,430.929868 180.075247,437.009086 215.336925,437.009086 C254.59557,437.009086 268.818516,429.931615 273.158344,426.837953 C270.489097,412.050479 260.663505,356.31166 258.979118,328.139785 C258.245075,323.118622 252.575226,276.768894 287.53086,247.345753 C290.448624,244.893825 294.802258,245.268745 297.259806,248.178397 C299.715054,251.09495 299.339978,255.449078 296.424516,257.903306 C266.287333,283.269035 272.601484,325.904067 272.668215,326.33189 C272.702731,326.557302 272.728043,326.794214 272.741849,327.019626 C274.54129,357.999948 287.259333,427.222073 287.388194,427.91671 C287.673527,429.462391 287.420409,431.058674 286.67486,432.443347 C285.020387,435.511708 273.804946,450.809809 215.336925,450.809809 L215.336925,450.809809 Z M141.493118,230.683681 C146.900645,234.310971 151.049484,239.598948 152.121785,243.716163 C158.265656,267.227995 164.499269,278.155867 183.664925,276.819497 C183.671828,276.814897 201.334882,274.912697 209.080301,262.321838 C214.439505,253.613582 214.121957,241.335539 208.134559,225.832727 C205.796667,219.77651 202.338151,215.822603 197.561118,213.743294 C188.382129,209.747984 176.306086,213.439678 169.927505,215.995112 C167.923269,216.800154 165.07914,218.943866 162.329355,221.013974 C157.342925,224.772371 149.73557,230.501971 141.493118,230.683681 L141.493118,230.683681 Z" id="Fill-4" fill="#FFC988"></path>
            <path d="M248.032903,207.680176 C248.032903,207.680176 268.29157,148.870696 306.781656,137.540303 C313.648065,135.520797 336.925742,142.375156 331.907097,159.869872 C325.213269,183.209195 287.76557,201.416948 269.669914,237.098717" id="Fill-5" fill="#FFD9B6"></path>
            <path d="M269.665312,243.999078 C268.61372,243.999078 267.550624,243.759866 266.549656,243.251539 C263.150968,241.528749 261.791032,237.374731 263.514538,233.977453 C273.278,214.727745 288.030194,200.607306 301.045075,188.152153 C312.559656,177.129976 322.504903,167.609778 325.270796,157.967673 C326.225742,154.646299 325.638968,152.111566 323.370108,149.747042 C319.103914,145.296309 310.89828,143.640222 308.705355,144.16925 C274.060366,154.365684 254.752043,209.370765 254.561054,209.927394 C253.318473,213.529382 249.383634,215.445383 245.787054,214.205618 C242.181269,212.963553 240.264473,209.037247 241.504753,205.435259 C242.381462,202.895926 263.401785,143.115795 304.832645,130.922856 C311.830215,128.866549 325.070602,131.980912 332.889656,139.739218 C338.900065,145.70343 340.906602,153.52844 338.543398,161.772072 C334.751226,174.997765 323.554194,185.711726 310.594538,198.118575 C298.373527,209.812388 284.525656,223.067982 275.827591,240.21768 C274.612624,242.616706 272.182688,243.999078 269.665312,243.999078" id="Fill-6" fill="#FFC988"></path>
            <path d="M207.055355,167.147453 C207.860731,142.848981 210.934968,102.755581 226.529355,86.1395111 C232.498344,79.779678 256.984086,69.8868599 262.511269,91.3722851 C269.547957,118.725318 242.165161,168.062901 248.24,220.915069" id="Fill-7" fill="#FFD9B6"></path>
            <path d="M248.230796,227.815431 C244.769978,227.815431 241.785484,225.220895 241.380495,221.704011 C237.965699,191.991054 244.491548,164.237801 250.246538,139.755319 C254.752043,120.590715 258.643161,104.039048 255.826645,93.0904751 C254.349355,87.3585749 251.491419,86.0061041 249.468774,85.488577 C243.009656,83.8209897 233.865183,88.4051297 231.566409,90.8593583 C224.435376,98.4589563 215.592344,117.899574 213.95628,167.377465 C213.827419,171.186465 210.651935,174.162821 206.827548,174.043215 C203.019269,173.916708 200.032473,170.728741 200.159032,166.917441 C201.606409,123.141549 208.587871,95.1743842 221.496903,81.4196639 C226.996473,75.558957 240.964,69.0703172 252.895075,72.1179768 C261.03628,74.204186 266.823484,80.4306121 269.195892,89.651795 C272.859204,103.891841 268.611419,121.973088 263.687118,142.911084 C258.189849,166.298709 251.958538,192.805297 255.097204,220.126128 C255.534409,223.914426 252.814538,227.334705 249.029269,227.769428 C248.760043,227.80163 248.493118,227.815431 248.230796,227.815431" id="Fill-8" fill="#FFC988"></path>
            <path d="M205.755247,167.142853 C205.755247,167.142853 217.279032,172.670043 221.885785,178.199532" id="Fill-9" fill="#FFD9B6"></path>
            <path d="M221.892688,185.099894 C219.911462,185.099894 217.950946,184.253449 216.584108,182.618064 C213.944774,179.450798 206.705591,175.257678 202.763849,173.362379 C199.330645,171.708592 197.883269,167.586776 199.535441,164.154997 C201.185312,160.723217 205.306538,159.271841 208.742043,160.921027 C210.060559,161.55356 221.775333,167.287761 227.192065,173.781001 C229.631204,176.709054 229.235419,181.060882 226.308452,183.49901 C225.015247,184.573166 223.448215,185.099894 221.892688,185.099894" id="Fill-10" fill="#FFC988"></path>
            <path d="M46.194086,303.744707 L68.9747312,326.513599" id="Fill-11" fill="#E6E6E6"></path>
            <path d="M68.9747312,333.413961 C67.2075054,333.413961 65.4425806,332.740025 64.0941505,331.392155 L41.3135054,308.623262 C38.6166452,305.929821 38.6166452,301.559593 41.3135054,298.866151 C44.0103656,296.17041 48.3778065,296.17041 51.0746667,298.866151 L73.8553118,321.635044 C76.552172,324.328485 76.552172,328.698714 73.8553118,331.392155 C72.5068817,332.740025 70.7396559,333.413961 68.9747312,333.413961" id="Fill-12" fill="#CCCCCC"></path>
            <path d="M68.9747312,303.744707 L46.194086,326.513599" id="Fill-13" fill="#E6E6E6"></path>
            <path d="M46.194086,333.413961 C44.4291613,333.413961 42.6619355,332.740025 41.3135054,331.392155 C38.6166452,328.698714 38.6166452,324.328485 41.3135054,321.635044 L64.0941505,298.866151 C66.7887097,296.17041 71.1584516,296.17041 73.8553118,298.866151 C76.552172,301.559593 76.552172,305.929821 73.8553118,308.623262 L51.0746667,331.392155 C49.7262366,332.740025 47.9613118,333.413961 46.194086,333.413961" id="Fill-14" fill="#CCCCCC"></path>
            <path d="M331.354839,85.1044569 C327.541957,85.1044569 324.451613,82.0153951 324.451613,78.2040955 L324.451613,46.0024091 C324.451613,42.1911095 327.541957,39.1020478 331.354839,39.1020478 C335.16772,39.1020478 338.258065,42.1911095 338.258065,46.0024091 L338.258065,78.2040955 C338.258065,82.0153951 335.16772,85.1044569 331.354839,85.1044569" id="Fill-15" fill="#FFDC0D"></path>
            <path d="M347.462366,69.0036137 L315.247312,69.0036137 C311.43443,69.0036137 308.344086,65.9145519 308.344086,62.1032523 C308.344086,58.2919527 311.43443,55.202891 315.247312,55.202891 L347.462366,55.202891 C351.275247,55.202891 354.365591,58.2919527 354.365591,62.1032523 C354.365591,65.9145519 351.275247,69.0036137 347.462366,69.0036137" id="Fill-16" fill="#FFDC0D"></path>
            <path d="M347.462366,384.120116 C343.649484,384.120116 340.55914,381.031054 340.55914,377.219755 L340.55914,345.018068 C340.55914,341.206769 343.649484,338.117707 347.462366,338.117707 C351.275247,338.117707 354.365591,341.206769 354.365591,345.018068 L354.365591,377.219755 C354.365591,381.031054 351.275247,384.120116 347.462366,384.120116" id="Fill-17" fill="#FFDC0D"></path>
            <path d="M363.569892,368.019273 L331.354839,368.019273 C327.541957,368.019273 324.451613,364.930211 324.451613,361.118912 C324.451613,357.307612 327.541957,354.21855 331.354839,354.21855 L363.569892,354.21855 C367.382774,354.21855 370.473118,357.307612 370.473118,361.118912 C370.473118,364.930211 367.382774,368.019273 363.569892,368.019273" id="Fill-18" fill="#FFDC0D"></path>
            <path d="M135.763441,6.90036137 L135.763441,39.1020478" id="Fill-19" fill="#E6E6E6"></path>
            <path d="M135.763441,46.0024091 C131.950559,46.0024091 128.860215,42.9133474 128.860215,39.1020478 L128.860215,6.90036137 C128.860215,3.08906177 131.950559,-7.81597009e-14 135.763441,-7.81597009e-14 C139.576323,-7.81597009e-14 142.666667,3.08906177 142.666667,6.90036137 L142.666667,39.1020478 C142.666667,42.9133474 139.576323,46.0024091 135.763441,46.0024091" id="Fill-20" fill="#CCCCCC"></path>
            <path d="M151.870968,23.0012046 L119.655914,23.0012046" id="Fill-21" fill="#E6E6E6"></path>
            <path d="M151.870968,29.9015659 L119.655914,29.9015659 C115.843032,29.9015659 112.752688,26.8125042 112.752688,23.0012046 C112.752688,19.189905 115.843032,16.1008432 119.655914,16.1008432 L151.870968,16.1008432 C155.683849,16.1008432 158.774194,19.189905 158.774194,23.0012046 C158.774194,26.8125042 155.683849,29.9015659 151.870968,29.9015659" id="Fill-22" fill="#CCCCCC"></path>
            <path d="M23.0107527,181.709516 C19.197871,181.709516 16.1075269,178.620454 16.1075269,174.809155 L16.1075269,142.607468 C16.1075269,138.796169 19.197871,135.707107 23.0107527,135.707107 C26.8236344,135.707107 29.9139785,138.796169 29.9139785,142.607468 L29.9139785,174.809155 C29.9139785,178.620454 26.8236344,181.709516 23.0107527,181.709516" id="Fill-23" fill="#FFDC0D"></path>
            <path d="M39.1182796,165.608673 L6.90322581,165.608673 C3.09034409,165.608673 0,162.519611 0,158.708311 C0,154.897012 3.09034409,151.80795 6.90322581,151.80795 L39.1182796,151.80795 C42.9311613,151.80795 46.0215054,154.897012 46.0215054,158.708311 C46.0215054,162.519611 42.9311613,165.608673 39.1182796,165.608673" id="Fill-24" fill="#FFDC0D"></path>
            <path d="M398.258602,181.838323 L421.039247,204.607215" id="Fill-25" fill="#F2F2F2"></path>
            <path d="M421.039247,211.507577 C419.272022,211.507577 417.507097,210.833641 416.158667,209.485771 L393.378022,186.716878 C390.681161,184.023437 390.681161,179.653208 393.378022,176.959767 C396.074882,174.264026 400.442323,174.264026 403.139183,176.959767 L425.919828,199.72866 C428.616688,202.422101 428.616688,206.79233 425.919828,209.485771 C424.571398,210.833641 422.804172,211.507577 421.039247,211.507577" id="Fill-26" fill="#E6E6E6"></path>
            <path d="M421.039247,181.838323 L398.258602,204.607215" id="Fill-27" fill="#F2F2F2"></path>
            <path d="M398.258602,211.507577 C396.493677,211.507577 394.726452,210.833641 393.378022,209.485771 C390.681161,206.79233 390.681161,202.422101 393.378022,199.72866 L416.158667,176.959767 C418.853226,174.264026 423.222968,174.264026 425.919828,176.959767 C428.616688,179.653208 428.616688,184.023437 425.919828,186.716878 L403.139183,209.485771 C401.790753,210.833641 400.025828,211.507577 398.258602,211.507577" id="Fill-28" fill="#E6E6E6"></path>
        </g>
    </g>
</svg>