<svg width="26" height="26" viewBox="0 0 26 26" xmlns="http://www.w3.org/2000/svg"><g fill="none" fill-rule="evenodd"><g><path d="M3.036 19.503c-.777-.777-.774-2.042.01-2.825L17.178 2.544c.78-.782 2.052-.78 2.824-.01l4.96 4.962c.778.777.775 2.042-.008 2.825L10.822 24.456c-.782.782-2.053.78-2.825.01l-4.96-4.962zm1.42-1.408l14.14-14.14 4.95 4.95-14.14 14.14-4.95-4.95zm2.12-2.12l1.06-1.06 2.122 2.12-1.06 1.06-2.12-2.12zm2.83-2.83l1.06-1.06L14 15.622l-1.06 1.06-3.535-3.534zm2.827-2.827l1.06-1.06 2.12 2.12-1.06 1.06-2.12-2.12zM15.06 7.49l1.06-1.06 3.536 3.535-1.06 1.06L15.06 7.49z" fill="#4D4D4D"/></g></g></svg>